PathFileType	4	(X/Y/Z)	C:\Users\°ÂÌØÂü\Desktop\20210112\bx_n_5_501-Unnamed.trc
DataRate	CameraRate	NumFrames	NumMarkers	Units	OrigDataRate	OrigDataStartFrame	OrigNumFrames
50.00	50.00	       4	0	mm	50.00	130	       517
Frame#	Time	
		

130	2.580	-179.22031	131.50288	1491.96643	-405.08002	284.93057	1282.93811	-717.52521	-7.46740	807.92218	-718.54913	221.23564	796.56470	-807.57239	279.29248	735.56824	-730.29907	238.36612	1033.48547	-817.95911	253.97096	632.07709	-745.60858	207.36047	538.32123	-831.41138	261.49924	489.77454	-517.53833	-73.15752	143.35538	-548.77008	-21.14551	162.00172	-795.09692	34.20978	174.69998	-726.55481	64.32142	219.43457	-600.78418	27.78966	167.85959	-675.84399	51.06559	162.57478	-719.19989	156.75092	220.89088	-797.85663	180.83344	183.08844	-771.94318	230.29463	203.25534	-593.37988	217.52586	173.26566	-882.63013	296.16531	144.77748	-556.87714	253.35938	163.13959	-660.20300	298.44870	156.60551	-623.57928	306.55008	158.69986	-527.96344	304.39572	146.69714				-912.51080	92.13718	1094.23315	-818.70892	-50.05856	478.56638	-762.85663	-24.42497	204.94492	-875.87097	-78.64214	141.18979	-803.91595	-75.02881	868.22479	-794.30328	-37.66792	611.86188	-793.01654	-35.65010	565.35321	-676.49731	174.24863	161.49710	-605.22375	-73.77863	156.38667	-648.68561	-68.64481	160.51099	-803.12189	-65.93892	751.38190				-729.66010	-7.36646	1013.93011	-770.11932	145.25050	573.74170	-824.77319	287.53632	869.07269				-735.49274	14.51785	526.47675	-806.48950	248.80574	568.59479	-775.08020	71.98569	569.80591	
131	2.600	-174.39680	131.41356	1480.29761	-400.19577	284.47440	1273.13330	-720.34467	-8.01197	807.62866	-720.82281	221.06502	796.05841	-809.79559	279.22116	735.31671	-732.46741	238.47844	1031.82959	-819.80530	254.70139	632.36615	-746.91656	207.40959	538.29590	-832.92334	261.54437	489.61017	-517.60925	-72.67076	143.37065	-548.87677	-21.24764	162.02206	-795.11688	33.76307	174.62633	-727.13568	64.76906	220.56523	-600.58459	27.44923	168.16255	-675.88684	50.80244	163.06772	-719.27612	156.79173	220.97900	-798.09644	181.59273	182.59605	-772.06476	230.21109	202.72411	-593.55676	217.63383	173.32623	-882.37256	295.96619	144.65007	-556.94739	253.40076	163.21036	-660.22235	298.59561	155.93867	-623.41699	306.41190	158.82845	-527.72644	304.22144	146.68024				-914.66187	92.18162	1095.25122	-820.36902	-50.92591	478.78146	-763.02820	-25.18890	204.97453	-875.88751	-78.54328	141.29303	-807.37799	-75.24011	867.48865	-796.20526	-37.99015	611.57489	-794.84692	-35.78173	564.98346	-676.53186	174.60275	161.69685	-605.29150	-73.95178	156.26749	-648.50446	-68.82805	160.65808	-805.52649	-66.41849	751.20959				-731.90717	-6.93090	1011.60046	-771.60968	144.93016	573.41968	-827.55206	287.70514	869.32733				-737.07928	14.56843	526.55353	-808.25867	248.65987	568.38116	-777.04944	71.46303	569.31079	
132	2.620	-170.16634	131.64899	1469.15759	-396.66925	283.91235	1264.06653	-722.89099	-7.69393	807.69965	-723.01019	221.09848	795.96490	-812.13245	279.35666	735.13531	-734.41913	238.63774	1030.31287	-821.85718	254.61993	631.62244	-748.74481	207.16689	538.20947	-834.40460	261.63904	489.34882	-517.93219	-73.02012	143.30203	-548.85809	-21.14878	161.73500	-795.12408	33.60811	174.79327	-727.07367	64.40874	220.74042	-600.63336	27.86665	167.99733	-675.73096	50.85020	162.83777	-719.75616	156.87326	221.18491	-798.13654	181.58372	182.52209	-772.33954	230.17427	202.89111	-593.57751	217.63336	173.12794	-882.62280	296.18463	144.80489	-556.52606	253.21843	163.22691	-660.33380	298.50760	156.36134	-623.50531	306.56396	158.82153	-527.98102	304.50754	146.63666				-915.14709	92.51255	1095.95898	-821.09558	-51.23116	478.63596	-762.82184	-25.27136	204.81340	-875.95648	-78.79716	141.44162	-810.24182	-75.25067	866.66669	-797.24805	-37.92401	611.65808	-795.90302	-36.14563	564.68988	-676.56812	174.55975	161.83141	-605.29150	-73.95178	156.26749	-648.47430	-68.79788	160.51343	-808.09528	-66.96523	750.86694				-734.18549	-7.32511	1010.10565	-773.59888	145.29451	573.31091	-830.07739	287.84360	868.89331				-738.40826	14.29828	526.30615	-809.72113	248.90282	568.08728	-778.30035	71.34654	569.06787	
133	2.640	-166.13841	131.76332	1458.26257	-392.94684	283.52133	1255.82617	-725.08362	-7.96952	807.56720	-725.47119	220.98128	795.75824	-814.00757	279.40704	734.83234	-736.28418	238.00653	1028.99670	-822.93585	254.73436	631.35529	-749.58374	207.36603	538.34131	-835.24615	261.70880	489.27682	-517.83374	-72.83466	143.28345	-548.91577	-21.20699	161.80142	-795.03699	33.74247	174.69510	-727.04047	64.20255	220.91476	-600.64282	27.84242	167.83012	-675.72595	50.89662	162.46336	-719.65283	157.04538	221.38719	-798.61145	181.47333	182.85918	-772.48309	230.18813	202.79523	-593.58472	217.58923	172.91408	-882.58124	296.13739	144.77245	-556.83478	253.34772	163.32286	-660.09564	298.50632	156.38315	-623.48871	306.41748	158.81497	-527.98108	304.10229	146.36168	-363.34152	-50.95845	1259.96484	-916.08459	92.19651	1096.49561	-821.88989	-51.18455	478.26505	-762.71698	-25.12603	204.77444	-875.78961	-78.57214	141.09050	-812.63068	-75.60264	866.60004	-799.07800	-37.74353	610.87335	-796.82715	-35.92095	564.52972	-676.93799	174.88522	161.79008	-605.33441	-73.86543	156.17346	-648.31946	-68.54351	160.53317	-809.61450	-67.10051	750.29797				-736.53778	-7.06185	1008.44897	-775.06354	145.38522	573.02728	-832.49652	288.13089	869.09357				-739.53656	14.18388	526.68573	-811.27203	248.79892	567.88446	-779.49597	71.30585	568.72845	
